<?xml version="1.0" encoding="UTF-8"?>
<svg width="38px" height="36px" viewBox="0 0 38 36" version="1.1" xmlns="http://www.w3.org/2000/svg" xmlns:xlink="http://www.w3.org/1999/xlink">
    <!-- Generator: Sketch 53.2 (72643) - https://sketchapp.com -->
    <title>house-deselected</title>
    <desc>Created with Sketch.</desc>
    <g id="house-deselected" stroke="none" stroke-width="1" fill="none" fill-rule="evenodd">
        <path d="M20.019565,3.3800758 C19.4516875,2.87330807 18.5998712,2.87330807 18.0319936,3.3800758 L5.53868764,13.8532756 C4.91402234,14.4163508 4.80044683,15.3735788 5.36832437,15.9929616 C5.93620192,16.6123443 6.90159374,16.7249594 7.52625904,16.1618841 L7.75341006,15.9929616 L7.75341006,28.0427721 C7.75341006,28.5495398 8.20771209,29 8.71880188,29 L15.7604834,29 L15.7604834,18.5831077 L22.3478629,18.5831077 L22.3478629,29 L29.3895445,29 C29.9006343,29 30.3549363,28.5495398 30.3549363,28.0427721 L30.3549363,15.9929616 L30.5820873,16.1618841 C30.8660261,16.3871142 31.2067526,16.4997293 31.5474792,16.4997293 C32.0017812,16.4997293 32.3992955,16.3308067 32.740022,15.936654 C33.2511118,15.3172713 33.194324,14.3600433 32.512871,13.8532756 L20.019565,3.3800758 Z" id="z" stroke="#9B9B9B" stroke-width="2"></path>
    </g>
</svg>