<?xml version="1.0" encoding="UTF-8"?>
<svg width="38px" height="36px" viewBox="0 0 38 36" version="1.1" xmlns="http://www.w3.org/2000/svg" xmlns:xlink="http://www.w3.org/1999/xlink">
    <!-- Generator: Sketch 53.2 (72643) - https://sketchapp.com -->
    <title>students-deselected</title>
    <desc>Created with Sketch.</desc>
    <g id="students-deselected" stroke="none" stroke-width="1" fill="none" fill-rule="evenodd">
        <g id="Tab/Deselected/Person" transform="translate(6.000000, 5.000000)" stroke="#9B9B9B">
            <g id="Tab-Person---Deselected">
                <path d="M24.813324,20.5308 C20.8143,18.985428 16.374852,17.066484 16.00182,15.8706 L16.00182,14.61618 C16.831368,13.767516 17.48574,12.583944 17.87292,11.198196 C18.796428,10.549764 19.038996,9.203652 18.264528,8.250876 L18.264528,5.442876 C18.264528,2.54394 16.650252,0.559548 12.959784,0.559548 C9.364572,0.559548 7.653204,2.54394 7.653204,5.442876 L7.653204,8.251956 C6.881544,9.201924 7.121304,10.547712 8.044812,11.197764 C8.431992,12.583944 9.086796,13.767516 9.916884,14.61618 L9.916884,15.8706 C9.544824,17.064972 5.104404,18.984348 1.10538,20.5308 C0.764532,20.6631 0.539028,20.99466 0.539028,21.365208 L0.539028,24.5025 C0.539028,24.995196 0.933012,25.395552 1.418904,25.395552 L24.4998,25.395552 C24.985692,25.395552 25.379676,24.995196 25.379676,24.5025 L25.379676,21.365208 C25.379784,20.99466 25.154172,20.662128 24.813324,20.5308 L24.813324,20.5308 Z" id="Shape" stroke-width="2"></path>
            </g>
        </g>
    </g>
</svg>