<?xml version="1.0" encoding="UTF-8"?>
<svg width="38px" height="36px" viewBox="0 0 38 36" version="1.1" xmlns="http://www.w3.org/2000/svg" xmlns:xlink="http://www.w3.org/1999/xlink">
    <!-- Generator: Sketch 53.2 (72643) - https://sketchapp.com -->
    <title>students-selected</title>
    <desc>Created with Sketch.</desc>
    <defs>
        <path d="M24.813324,20.5308 C20.8143,18.985428 16.374852,17.066484 16.00182,15.8706 L16.00182,14.61618 C16.831368,13.767516 17.48574,12.583944 17.87292,11.198196 C18.796428,10.549764 19.038996,9.203652 18.264528,8.250876 L18.264528,5.442876 C18.264528,2.54394 16.650252,0.559548 12.959784,0.559548 C9.364572,0.559548 7.653204,2.54394 7.653204,5.442876 L7.653204,8.251956 C6.881544,9.201924 7.121304,10.547712 8.044812,11.197764 C8.431992,12.583944 9.086796,13.767516 9.916884,14.61618 L9.916884,15.8706 C9.544824,17.064972 5.104404,18.984348 1.10538,20.5308 C0.764532,20.6631 0.539028,20.99466 0.539028,21.365208 L0.539028,24.5025 C0.539028,24.995196 0.933012,25.395552 1.418904,25.395552 L24.4998,25.395552 C24.985692,25.395552 25.379676,24.995196 25.379676,24.5025 L25.379676,21.365208 C25.379784,20.99466 25.154172,20.662128 24.813324,20.5308 L24.813324,20.5308 Z" id="path-1"></path>
        <filter x="-36.2%" y="-28.2%" width="172.5%" height="172.5%" filterUnits="objectBoundingBox" id="filter-2">
            <feMorphology radius="2" operator="dilate" in="SourceAlpha" result="shadowSpreadOuter1"></feMorphology>
            <feOffset dx="0" dy="2" in="shadowSpreadOuter1" result="shadowOffsetOuter1"></feOffset>
            <feGaussianBlur stdDeviation="2" in="shadowOffsetOuter1" result="shadowBlurOuter1"></feGaussianBlur>
            <feComposite in="shadowBlurOuter1" in2="SourceAlpha" operator="out" result="shadowBlurOuter1"></feComposite>
            <feColorMatrix values="0 0 0 0 0.643137255   0 0 0 0 0.839215686   0 0 0 0 0.694117647  0 0 0 0.554878715 0" type="matrix" in="shadowBlurOuter1"></feColorMatrix>
        </filter>
    </defs>
    <g id="students-selected" stroke="none" stroke-width="1" fill="none" fill-rule="evenodd">
        <g id="Tab-Person---Deselected" transform="translate(6.000000, 5.000000)">
            <g id="Shape">
                <use fill="black" fill-opacity="1" filter="url(#filter-2)" xlink:href="#path-1"></use>
                <path stroke="#73BF87" stroke-width="2" d="M25.1733205,19.5978463 C25.9017711,19.878737 26.3799039,20.5834199 26.379676,21.365208 L26.379676,24.5025 C26.379676,25.5442637 25.5412537,26.395552 24.4998,26.395552 L1.418904,26.395552 C0.377450314,26.395552 -0.460972,25.5442637 -0.460972,24.5025 L-0.460972,21.365208 C-0.460972,20.5837088 0.0164035065,19.8807975 0.744701792,19.5981097 C5.24559086,17.8575828 8.4736669,16.278232 8.916884,15.6583673 L8.916884,15.0058727 C8.15977401,14.133691 7.56352473,13.0277418 7.17383613,11.7786437 C6.10733725,10.8071993 5.87230066,9.18409876 6.653204,7.93451379 L6.653204,5.442876 C6.653204,1.83192513 8.97528827,-0.440452 12.959784,-0.440452 C17.0084083,-0.440452 19.264528,1.79894009 19.264528,5.442876 L19.264528,7.93318271 C20.0474013,9.18446826 19.8115858,10.8087095 18.7436979,11.7796467 C18.3540328,13.0282333 17.758205,14.1337988 17.00182,15.0056895 L17.00182,15.6582504 C17.4457794,16.2796806 20.6743419,17.8592504 25.1733205,19.5978462 Z" fill-opacity="0.500437063" fill="#FFFFFF" fill-rule="evenodd"></path>
            </g>
        </g>
    </g>
</svg>